<?xml version="1.0" encoding="utf-8"?>
<!-- Generator: Adobe Illustrator 23.0.2, SVG Export Plug-In . SVG Version: 6.00 Build 0)  -->
<svg version="1.1" xmlns="http://www.w3.org/2000/svg" xmlns:xlink="http://www.w3.org/1999/xlink" x="0px" y="0px"
	 viewBox="0 0 1080 1080" style="enable-background:new 0 0 1080 1080;" xml:space="preserve">
<style type="text/css">
	.st0{display:none;}
	.st1{display:inline;fill:#0D0D0D;stroke:#231F20;stroke-miterlimit:10;}
	.st2{fill:#0D0D0D;}
	.st3{display:inline;fill:#0D0D0D;}
	.st4{display:inline;fill:#0D0D0D;stroke:#2A2A2A;stroke-miterlimit:10;}
</style>
<g id="Layer_1" class="st0">
	<polygon class="st1" points="640,340 640,440 590,440 590,390 	"/>
	<polyline class="st1" points="690,440 740,440 740,240 690,290 	"/>
	<polygon class="st1" points="790,290 840,340 840,440 790,440 	"/>
	<polygon class="st1" points="940,440 890,440 890,390 	"/>
	<line class="st1" x1="740" y1="440" x2="740" y2="240"/>
	<rect x="590" y="440" class="st1" width="50" height="200"/>
	<rect x="690" y="440" class="st1" width="50" height="200"/>
	<polygon class="st1" points="790,440 840,440 840,540 790,590 	"/>
	<polygon class="st1" points="940,440 890,490 890,440 	"/>
	<line class="st1" x1="740" y1="640" x2="740" y2="440"/>
	<polygon class="st1" points="640,640 640,740 590,790 590,640 	"/>
	<polygon class="st1" points="740,640 690,690 690,640 	"/>
	<polygon class="st1" points="640,340 640,740 590,790 590,390 	"/>
	<polygon class="st1" points="740,240 740,640 690,690 690,290 	"/>
	<polyline class="st1" points="790,290 790,440 790,590 	"/>
	<polyline class="st1" points="740,640 740,440 740,240 	"/>
	<polygon class="st1" points="840,340 840,540 790,590 790,290 	"/>
</g>
<g id="Layer_2">
	<g>
		<path class="st2" d="M783.47,648.23L575.36,856.35c-19.53,19.53-51.18,19.53-70.71,0L151.93,503.63
			c-19.53-19.53-19.53-51.18,0-70.71l172.76-172.76c19.53-19.53,51.18-19.53,70.71,0L783.47,648.23z"/>
		<path class="st2" d="M504.64,856.35L296.53,648.23L684.6,260.17c19.53-19.53,51.18-19.53,70.71,0l172.76,172.76
			c19.53,19.53,19.53,51.18,0,70.71L575.36,856.35C555.83,875.87,524.17,875.87,504.64,856.35z"/>
	</g>
</g>
<g id="Layer_4" class="st0">
	<polygon class="st3" points="140,440 340,240 540,440 540,840 	"/>
	<polyline class="st4" points="890,390 940,440 890,490 	"/>
</g>
</svg>
